<svg width="200" height="200" viewBox="0 0 200 200" fill="none" xmlns="http://www.w3.org/2000/svg">
<path fill-rule="evenodd" clip-rule="evenodd" d="M55.1644 33.313C53.6241 33.7857 52.6466 34.9461 50.0077 39.4342C48.7077 41.6451 44.0689 49.5065 39.6991 56.9041C35.3292 64.3016 31.287 71.1595 30.7165 72.1436C29.7219 73.8591 29.6792 73.9991 29.6839 75.5326C29.6915 77.9833 30.7615 79.7151 32.923 80.7752L34.1327 81.3685L41.0782 81.4346L48.0237 81.5006V105.399V129.297L47.2285 129.443C45.7573 129.713 43.7911 130.875 40.9149 133.175C39.3426 134.433 38.0561 135.371 38.0561 135.26C38.0561 134.921 38.7992 131.689 42.1189 117.588C45.5948 102.824 45.5715 102.981 44.6261 100.786C44.1046 99.5753 42.4834 97.9284 41.3456 97.4536C40.9435 97.2858 39.9622 97.1485 39.1648 97.1485C36.7342 97.1485 34.9309 98.3294 33.7354 100.704C33.4523 101.267 32.5041 104.78 31.5638 108.751L29.8945 115.799L29.2566 115.635C28.9058 115.544 27.7597 115.47 26.7099 115.47C25.0498 115.47 24.6441 115.547 23.5945 116.062C22.8682 116.418 21.959 117.123 21.3107 117.831L20.2337 119.008L19.385 118.669C18.0126 118.121 15.6766 118.216 14.3545 118.874C11.9629 120.064 11.2452 121.499 9.61096 128.362C7.26602 138.208 7.01831 139.629 7.00156 143.324C6.98862 146.199 7.04843 146.804 7.4834 148.195C9.27291 153.92 13.9732 158.343 20.1355 160.102C21.5904 160.518 22.3157 160.586 25.2254 160.581C28.5039 160.576 28.6867 160.552 30.6334 159.88C32.8424 159.117 34.6671 158.171 36.3035 156.939C37.3475 156.153 46.1522 148.135 47.1593 147.053C47.4422 146.749 47.7523 146.501 47.8486 146.501C47.9449 146.501 48.0237 149.745 48.0237 153.709C48.0237 160.435 48.053 161.005 48.4621 162.217C49.2748 164.627 50.7074 166.209 53.1036 167.343L54.4921 168H101.266H148.04L149.643 167.209C151.573 166.256 152.776 165.03 153.71 163.061C154.378 161.652 154.381 161.625 154.487 157.433L154.593 153.219L160.217 158.957C166.409 165.273 166.785 165.555 169.014 165.555C171.145 165.555 173.043 164.404 174.063 162.493C174.708 161.285 174.694 159.034 174.034 157.727C173.704 157.075 171.602 154.865 167.381 150.732L161.21 144.69L162.077 143.106C165.762 136.38 165.401 127.811 161.158 121.258C159.961 119.409 157.646 116.968 155.812 115.621L154.487 114.647V99.2258V83.8043H169.303C177.883 83.8043 184.572 83.7188 185.193 83.601C188.518 82.9713 191.159 80.3028 191.806 76.9204C191.979 76.0132 192.03 70.86 191.984 58.9163L191.918 42.1831L191.245 40.7637C190.098 38.344 188.058 36.7164 185.493 36.1727C184.699 36.0045 177.349 35.9346 160.437 35.9346C137.205 35.9346 136.465 35.9469 135.149 36.3529C131.879 37.3616 129.686 40.0817 129.32 43.5836L129.189 44.8322L98.2291 44.7784L67.2692 44.7248L64.5336 40.0649C61.4867 34.8749 60.5985 33.8281 58.7841 33.2901C57.4576 32.8965 56.5016 32.9027 55.1644 33.313ZM58.7712 36.1347C59.2285 36.4131 59.9374 37.3825 60.9777 39.1522C61.8209 40.5862 66.8857 49.1612 72.2333 58.2078C81.1297 73.2577 81.9562 74.736 81.9562 75.598C81.9562 76.7325 81.3299 77.7632 80.2589 78.3917C79.5234 78.8231 79.3326 78.8267 57.0216 78.8267H34.5259L33.6731 78.2631C32.6104 77.5607 32.0303 76.4148 32.1786 75.3108C32.2528 74.7591 33.7573 72.0224 36.9073 66.7089C39.4484 62.4231 44.4275 54.0075 47.972 48.0079C51.5165 42.0083 54.6245 36.8746 54.8785 36.5999C55.1326 36.325 55.5313 36.0212 55.7646 35.9248C56.5486 35.601 58.069 35.7071 58.7712 36.1347ZM186.086 39.0321C187.313 39.6106 188.368 40.662 188.929 41.8653C189.367 42.8037 189.374 43.075 189.432 59.3213C189.496 77.5868 189.524 77.1614 188.143 78.9693C187.71 79.5367 186.975 80.1224 186.199 80.5191L184.95 81.1567L169.347 81.2096C160.766 81.2388 153.536 81.3104 153.281 81.3691C153.021 81.4288 150.569 83.9611 147.692 87.141C144.872 90.257 142.504 92.8303 142.429 92.8595C142.354 92.8888 142.318 90.6489 142.349 87.8819C142.399 83.4218 142.363 82.7671 142.031 82.1098L141.656 81.3685L138.973 81.2386C136.818 81.1342 136.099 81.0162 135.319 80.6394C134.105 80.0523 132.59 78.3942 132.259 77.2881C132.073 76.6688 132.008 72.0224 132.011 59.6331C132.016 43.175 132.025 42.7984 132.448 41.8653C133.218 40.1664 134.62 39.0781 136.533 38.6943C137.018 38.5971 148.151 38.532 161.273 38.5498C185.123 38.5822 185.132 38.5825 186.086 39.0321ZM158.904 45.0362C157.988 45.5339 157.375 46.3304 157.077 47.4106C156.814 48.3642 157.14 62.78 157.45 63.8998C157.564 64.311 157.994 64.9737 158.406 65.3726C159.066 66.0116 159.313 66.1078 160.479 66.1796C161.597 66.2482 161.919 66.1838 162.546 65.7655C162.954 65.4931 163.496 64.8413 163.751 64.3173C164.193 63.4084 164.221 62.9962 164.363 55.3943C164.51 47.4568 164.509 47.4208 164.047 46.6004C163.368 45.3942 162.327 44.7627 160.882 44.6814C159.989 44.631 159.484 44.7214 158.904 45.0362ZM161.593 47.586C161.956 47.9865 161.97 48.4493 161.837 55.5612C161.742 60.618 161.617 63.2057 161.458 63.3968C161.144 63.7753 160.33 63.7602 160.005 63.3699C159.787 63.1066 159.482 56.0164 159.375 48.6963C159.355 47.3858 160.77 46.6777 161.593 47.586ZM56.2038 47.7052C55.9118 47.9971 55.8706 49.1087 55.8706 56.7073C55.8706 65.0942 55.8844 65.3904 56.2948 65.8002C56.8356 66.3403 57.3649 66.3378 57.9513 65.792C58.4139 65.3616 58.4156 65.3306 58.4156 56.8863V48.4123L57.8949 47.8925C57.2966 47.2947 56.6829 47.2268 56.2038 47.7052ZM129.294 62.2523L129.356 77.1322L129.848 78.3506C131.197 81.6866 133.897 83.5101 137.839 83.7465L139.747 83.8609V89.7465V95.6322L140.261 96.1786C140.617 96.5561 140.996 96.7249 141.49 96.7249C142.399 96.7249 143.014 96.1505 148.018 90.6336L151.836 86.4253L151.891 99.7636C151.92 107.1 151.916 113.131 151.881 113.166C151.846 113.201 150.958 112.954 149.907 112.616C146.993 111.68 145.489 111.488 142.005 111.606C139.457 111.692 138.558 111.812 137.004 112.277C129.476 114.528 123.808 120.739 122.203 128.496C121.641 131.217 121.76 136.03 122.454 138.558C123.465 142.242 125.6 145.815 128.376 148.463C130.396 150.391 131.459 151.127 133.963 152.333C137.033 153.812 139.569 154.388 143.035 154.394C146.428 154.401 148.564 153.989 151.571 152.751C151.916 152.609 151.942 152.869 151.942 156.531C151.942 159.989 151.889 160.606 151.503 161.635C150.927 163.174 149.548 164.551 148.008 165.126C146.837 165.564 146.813 165.564 101.285 165.564C50.1314 165.564 54.6737 165.717 52.6801 163.927C50.6109 162.069 50.6836 162.468 50.6128 152.596L50.5509 143.971L52.7569 141.849C55.4666 139.242 56.1671 137.956 56.1654 135.593C56.1641 133.671 55.5733 132.331 54.1316 130.979C53.3452 130.242 52.7145 129.868 51.8106 129.603L50.5693 129.238L50.5689 105.363L50.5687 81.4881L65.2551 81.4284L79.9414 81.3685L81.05 80.868C83.3432 79.8324 84.6123 77.7202 84.4685 75.1785L84.3866 73.7318L77.5728 62.1937C73.8253 55.8478 70.3216 49.9168 69.7867 49.014L68.8146 47.3725H99.024H129.233L129.294 62.2523ZM158.924 68.8236C157.349 69.8838 156.778 71.9023 157.539 73.722C158.126 75.1234 159.892 75.9821 161.549 75.6716C163.909 75.2291 165.134 71.8377 163.654 69.841C162.519 68.3102 160.373 67.8484 158.924 68.8236ZM56.2174 70.2638C55.1502 71.1021 55.6957 72.79 57.0339 72.79C58.1791 72.79 58.8283 71.8621 58.4247 70.802C58.2404 70.318 57.4941 69.8247 56.9459 69.8247C56.8525 69.8247 56.5247 70.0223 56.2174 70.2638ZM161.627 71.4376C161.953 71.9341 161.958 72.0495 161.678 72.5496C161.298 73.2283 160.533 73.3774 159.983 72.8801C159.491 72.4346 159.468 71.9807 159.907 71.3546C160.361 70.7067 161.173 70.746 161.627 71.4376ZM79.301 84.6251C79.0651 84.698 78.673 84.9005 78.4291 85.0752C78.0718 85.3313 72.5429 93.6574 68.3571 100.243C67.4999 101.592 67.3585 102.3 67.824 102.912C68.3531 103.608 69.208 103.715 74.2291 103.715H79.1992V106.103C79.1992 109.044 79.41 109.49 80.7516 109.392C81.9647 109.303 82.1613 108.83 82.1651 105.992L82.1683 103.715H83.4547C85.3323 103.715 85.9765 103.305 85.9825 102.106C85.9874 101.1 85.3921 100.711 83.6583 100.587L82.1683 100.481V93.4028C82.1683 85.9286 82.1034 85.3823 81.1588 84.899C80.5747 84.6001 79.7667 84.4811 79.301 84.6251ZM96.5896 84.7308C93.3486 85.6219 91.0011 88.1378 89.6478 92.1709C89.1225 93.7362 89.079 94.1319 89.079 97.3604C89.079 100.592 89.1223 100.984 89.651 102.566C90.7088 105.732 92.4759 107.855 95.0789 109.087C96.376 109.701 96.654 109.751 98.7103 109.751C100.775 109.751 101.041 109.702 102.367 109.075C104.808 107.92 106.477 105.908 107.564 102.811C108.024 101.5 108.116 100.803 108.202 97.9797C108.29 95.106 108.245 94.45 107.854 92.8962C107.026 89.6069 105.449 87.1753 103.215 85.7437C101.374 84.5637 98.6895 84.1534 96.5896 84.7308ZM122.89 84.6115C121.896 84.7672 121.271 85.4732 119.066 88.9257C117.851 90.8272 115.542 94.4043 113.934 96.8749C110.843 101.625 110.634 102.143 111.416 103.109C111.82 103.608 111.83 103.609 117.354 103.672L122.887 103.735V106.251C122.887 109.078 123.039 109.434 124.248 109.434C125.452 109.434 125.644 108.991 125.644 106.211V103.763L127.154 103.677C128.419 103.606 128.729 103.512 129.063 103.1C129.569 102.476 129.57 101.778 129.066 101.156C128.732 100.744 128.443 100.66 127.21 100.616L125.75 100.563L125.644 93.1423C125.543 86.0345 125.52 85.7037 125.106 85.2908C124.603 84.7886 123.641 84.4938 122.89 84.6115ZM100.325 87.9298C103.267 88.8027 105.021 91.9134 105.227 96.6256C105.406 100.717 104.543 103.434 102.453 105.358C101.275 106.443 99.5712 107.004 98.1065 106.789C95.2159 106.367 93.3219 104.409 92.4271 100.921C92.0106 99.2972 91.9597 95.5417 92.3329 93.9713C93.0375 91.007 94.7538 88.7394 96.8366 88.0211C98.2213 87.5435 98.957 87.5242 100.325 87.9298ZM122.805 94.7036L122.829 100.52L119.035 100.581C116.381 100.625 115.259 100.574 115.3 100.413C115.38 100.096 122.543 88.9147 122.675 88.8999C122.733 88.8933 122.792 91.505 122.805 94.7036ZM79.1992 94.8091V100.519L75.4853 100.581C72.9316 100.624 71.7983 100.573 71.8577 100.419C71.9701 100.127 79.0668 89.0996 79.1421 89.0996C79.1735 89.0996 79.1992 91.6689 79.1992 94.8091ZM41.1346 100.357C41.553 100.724 42.0306 101.286 42.1963 101.606C42.8671 102.901 42.7924 103.612 41.3431 109.751C38.6993 120.949 35.9582 132.841 35.4789 135.192C35.0217 137.435 35.0164 137.571 35.364 138.101C35.5644 138.407 35.9667 138.717 36.2575 138.79C37.3579 139.066 38.1462 138.674 40.8131 136.524C42.2711 135.349 44.0573 133.962 44.7826 133.441C48.0651 131.084 51.284 131.118 52.9836 133.528C53.7674 134.639 53.8404 136.22 53.1677 137.514C52.6112 138.585 37.514 152.807 34.7093 154.904C31.9039 157.001 29.2894 157.943 25.8398 158.1C22.9589 158.231 20.9228 157.839 18.4022 156.668C14.6938 154.946 12.4248 152.764 10.6709 149.233C8.9989 145.868 9.03178 142.084 10.7994 134.428C12.586 126.689 13.3109 123.845 13.7055 123.024C14.3386 121.707 15.574 120.872 16.8869 120.872C18.0979 120.872 19.3933 121.351 19.3933 121.798C19.3933 121.971 18.869 124.287 18.2281 126.946C16.9821 132.114 16.9217 132.51 17.3149 132.903C17.7579 133.345 18.9237 133.212 19.265 132.68C19.5489 132.237 20.7243 127.603 21.7055 123.056C22.2039 120.747 22.511 120.098 23.5258 119.208C24.7156 118.165 25.6402 117.863 27.3924 117.947C28.2344 117.987 29.0137 118.113 29.1247 118.228C29.253 118.36 28.7035 121.072 27.6151 125.679C25.966 132.66 25.9168 132.942 26.2589 133.463C26.7403 134.197 27.9985 134.237 28.3005 133.527C28.4121 133.265 29.3232 129.477 30.3254 125.108C32.9412 113.705 35.4851 103.072 35.7674 102.363C36.3936 100.788 37.8726 99.6922 39.3742 99.6911C40.1941 99.6905 40.5113 99.8104 41.1346 100.357ZM148.124 114.718C154.802 116.64 159.892 121.853 161.532 128.453C162.16 130.98 162.151 135.072 161.513 137.463C159.736 144.117 155.145 148.931 148.549 151.056C146.118 151.84 142.011 152.034 139.507 151.483C131.857 149.802 126.368 144.317 124.683 136.672C124.191 134.435 124.346 129.932 124.99 127.763C126.002 124.357 127.69 121.594 130.25 119.153C132.831 116.692 135.611 115.214 139.137 114.428C141.266 113.953 145.996 114.106 148.124 114.718ZM84.5921 120.206C82.7678 121.049 81.812 122.978 82.0084 125.421C82.1944 127.735 83.543 129.468 85.3465 129.709C86.4715 129.86 87.1201 129.664 87.9743 128.915C89.3299 127.726 89.9861 125.632 89.594 123.746C88.9989 120.883 86.68 119.242 84.5921 120.206ZM110.231 119.96C109.419 120.118 107.889 121.656 107.476 122.729C106.656 124.86 107.287 127.647 108.896 128.999C109.7 129.674 110.348 129.855 111.438 129.709C114.806 129.258 116.064 123.63 113.381 121.014C112.939 120.583 112.249 120.136 111.849 120.021C111.103 119.808 111.029 119.805 110.231 119.96ZM57.6249 121.56C56.1058 123.007 55.0223 124.369 55.0223 124.831C55.0223 125.243 55.9885 126.167 56.4184 126.167C56.8899 126.167 60.4337 122.69 60.7571 121.91C61.1136 121.05 60.5821 120.236 59.6647 120.236C59.1574 120.236 58.7103 120.526 57.6249 121.56ZM141.403 122.877C141.031 123.038 140.435 123.573 140.078 124.065C139.539 124.809 139.429 125.159 139.429 126.143C139.429 128.377 140.119 135.593 140.397 136.276C141.229 138.317 144.429 138.287 145.599 136.227C146.008 135.508 146.774 127.287 146.587 125.629C146.322 123.285 143.686 121.885 141.403 122.877ZM143.959 125.584C144.217 125.996 144.206 126.68 143.878 130.615C143.669 133.12 143.489 135.193 143.478 135.222C143.407 135.415 142.608 135.223 142.598 135.01C142.591 134.865 142.411 132.791 142.199 130.403C141.764 125.515 141.828 125.108 143.035 125.108C143.454 125.108 143.759 125.265 143.959 125.584ZM96.5565 133.442C94.3661 134.252 92.6797 135.771 91.7724 137.75C90.1405 141.311 90.845 145.444 93.5136 147.964C94.8526 149.229 95.9011 149.781 97.5428 150.084C101.784 150.867 105.8 147.778 106.6 143.119C107.249 139.339 105.416 135.565 102.15 133.959C100.961 133.374 100.464 133.254 99.0335 133.209C97.9931 133.176 97.0305 133.266 96.5565 133.442ZM60.1122 134.004C59.5828 134.533 59.5669 135.312 60.0759 135.772C60.4006 136.065 60.9838 136.122 63.666 136.122C67.1968 136.122 67.5349 136.011 67.5349 134.848C67.5349 133.76 66.9727 133.58 63.5642 133.58C60.819 133.58 60.4967 133.62 60.1122 134.004ZM100.945 136.308C102.973 137.228 104.437 140.012 104.126 142.357C103.723 145.406 101.573 147.466 98.8164 147.444C94.0609 147.408 91.6918 141.393 94.9682 137.676C96.0706 136.425 97.1779 135.92 98.8164 135.92C99.5979 135.92 100.419 136.07 100.945 136.308ZM141.468 140.377C139.695 141.771 139.957 144.428 141.957 145.328C143.516 146.031 145.321 145.189 145.819 143.527C146.154 142.412 145.609 140.923 144.654 140.341C143.738 139.784 142.202 139.801 141.468 140.377ZM143.459 142.817C143.459 142.863 143.262 142.9 143.022 142.9C142.782 142.9 142.642 142.809 142.711 142.698C142.824 142.515 143.459 142.616 143.459 142.817ZM55.3555 144.292C54.6279 145.019 54.9294 145.69 56.9493 147.839C58.6109 149.608 58.9697 149.89 59.5578 149.89C60.4318 149.89 60.7484 149.561 60.7484 148.654C60.7484 148.022 60.4926 147.666 58.8007 145.943C56.7533 143.858 56.1026 143.546 55.3555 144.292ZM170.444 157.263C172.181 159.084 172.487 160.144 171.666 161.489C171.007 162.568 170.053 163.062 168.832 162.957L167.802 162.868L161.685 156.761L155.568 150.654L157.625 148.711L159.683 146.768L164.454 151.376C167.079 153.911 169.774 156.56 170.444 157.263Z" fill="#FFA853"/>
</svg>
