<svg width="200" height="200" viewBox="0 0 200 200" fill="none" xmlns="http://www.w3.org/2000/svg">
<path d="M103.439 120.644C104.07 120.358 104.814 120.637 105.1 121.269C105.386 121.9 105.107 122.644 104.475 122.93L95.0634 127.196C94.4322 127.483 93.6885 127.203 93.4024 126.572C93.1162 125.94 93.3959 125.197 94.0271 124.911L103.439 120.644ZM49.1216 118.769C49.541 118.217 50.3282 118.109 50.88 118.529L57.1547 123.298C57.7064 123.717 57.8137 124.504 57.3944 125.056C56.975 125.608 56.1878 125.715 55.636 125.296L49.3613 120.527C48.8095 120.108 48.7022 119.32 49.1216 118.769ZM93.4288 106.656C93.7454 106.04 94.502 105.796 95.1186 106.113C95.7351 106.43 95.9783 107.186 95.6617 107.803L90.893 117.089C90.5764 117.706 89.8198 117.949 89.2032 117.633C88.5867 117.316 88.3435 116.559 88.6601 115.943L93.4288 106.656ZM58.1689 106.072C58.808 105.804 59.5436 106.105 59.8116 106.744L63.0744 114.525C63.3424 115.164 63.0415 115.899 62.4023 116.168C61.7632 116.436 61.0277 116.135 60.7596 115.495L57.4968 107.715C57.2288 107.076 57.5297 106.34 58.1689 106.072ZM74.9683 113.253V103.967C74.9683 103.274 75.5302 102.712 76.2233 102.712C76.9163 102.712 77.4782 103.274 77.4782 103.967V113.253C77.4782 113.946 76.9163 114.508 76.2233 114.508C75.5302 114.508 74.9683 113.946 74.9683 113.253Z" fill="#FFA853"/>
<path d="M31.5805 148.439C32.2472 148.25 32.941 148.637 33.1303 149.304L36.8379 162.362C38.7076 168.946 44.721 173.49 51.566 173.49H145.114C151.429 173.49 157.097 169.612 159.384 163.725L165.031 149.192C165.282 148.546 166.009 148.226 166.655 148.477C167.301 148.728 167.622 149.455 167.371 150.101L161.724 164.634C159.061 171.486 152.465 176 145.114 176H51.566C43.5989 176 36.5998 170.711 34.4237 163.047L30.716 149.989C30.5267 149.322 30.9138 148.629 31.5805 148.439Z" fill="#FFA853"/>
<path d="M145.488 97.9435C147.985 97.9435 150.171 99.6188 150.82 102.03L162.578 145.701C163.523 149.21 160.879 152.659 157.246 152.659H121.401C118.351 152.659 115.879 150.187 115.879 147.137V103.465C115.879 100.416 118.351 97.9435 121.401 97.9435H145.488ZM118.389 147.137C118.389 148.8 119.737 150.149 121.401 150.149H157.246C159.228 150.149 160.67 148.268 160.154 146.354L148.396 102.682C148.042 101.367 146.85 100.453 145.488 100.453H121.401C119.737 100.453 118.389 101.802 118.389 103.465V147.137Z" fill="#FFA853"/>
<path d="M152.128 122.289C154.632 122.289 156.822 123.974 157.465 126.393L162.601 145.719C163.532 149.223 160.891 152.659 157.265 152.659H121.401C118.351 152.659 115.879 150.187 115.879 147.137V127.811C115.879 124.762 118.351 122.289 121.401 122.289H152.128ZM118.389 147.137C118.389 148.801 119.737 150.149 121.401 150.149H157.265C159.242 150.149 160.683 148.275 160.175 146.364L155.039 127.038C154.689 125.718 153.494 124.799 152.128 124.799H121.401C119.737 124.799 118.389 126.148 118.389 127.811V147.137Z" fill="#FFA853"/>
<path d="M145.435 97.9435C147.964 97.9435 150.169 99.6613 150.789 102.113L154.782 117.925C155.663 121.413 153.027 124.799 149.429 124.799H121.401C118.351 124.799 115.879 122.327 115.879 119.277V103.465C115.879 100.416 118.351 97.9435 121.401 97.9435H145.435ZM118.389 119.277C118.389 120.941 119.737 122.289 121.401 122.289H149.429C151.391 122.289 152.83 120.443 152.349 118.54L148.355 102.728C148.018 101.39 146.814 100.453 145.435 100.453H121.401C119.737 100.453 118.389 101.802 118.389 103.465V119.277Z" fill="#FFA853"/>
<path d="M102.671 97.9435C107.312 97.9435 111.102 101.653 111.202 106.293L112.016 143.941C112.119 148.725 108.269 152.659 103.484 152.659H44.0273C38.4452 152.659 34.3663 147.388 35.7668 141.984L45.5246 104.336C46.5002 100.572 49.897 97.9435 53.7854 97.9435H102.671ZM53.7854 100.453C51.0407 100.453 48.643 102.309 47.9543 104.966L38.1963 142.614C37.2077 146.428 40.087 150.149 44.0273 150.149H103.484C106.862 150.149 109.579 147.372 109.506 143.995L108.693 106.347C108.622 103.072 105.947 100.453 102.671 100.453H53.7854Z" fill="#FFA853"/>
<path d="M105.965 66.5093C105.965 72.784 102.521 75.0429 97.8078 75.0429C93.0948 75.0429 89.1487 71.5291 90.2782 66.5093C91.4076 61.4896 93.0948 57.3483 97.8078 57.3483C102.521 57.3483 104.961 61.9916 105.965 66.5093Z" fill="#FFA853"/>
<path d="M137.965 83.8881V92.1706H60.4104V83.8881H137.965ZM62.9203 89.6608H135.455V86.3979H62.9203V89.6608Z" fill="#FFA853"/>
<path d="M77.919 43.7572C78.9033 42.1822 81.9425 39.1998 86.4256 39.7897C87.1127 39.8801 87.5964 40.5104 87.506 41.1976C87.4156 41.8847 86.7853 42.3684 86.0981 42.278C82.9513 41.8639 80.7364 43.9851 80.0475 45.0874C79.6802 45.6751 78.9058 45.8537 78.318 45.4864C77.7304 45.1191 77.5518 44.3449 77.919 43.7572Z" fill="#FFA853"/>
<path d="M118.198 43.7572C117.214 42.1822 114.175 39.1998 109.692 39.7897C109.004 39.8801 108.521 40.5104 108.611 41.1976C108.702 41.8847 109.332 42.3684 110.019 42.278C113.166 41.8639 115.381 43.9851 116.07 45.0874C116.437 45.6751 117.211 45.8537 117.799 45.4864C118.387 45.1191 118.565 44.3449 118.198 43.7572Z" fill="#FFA853"/>
<path d="M145.127 25.1575C152.763 25.1575 158.701 31.8008 157.847 39.3892L153.865 74.7784C153.136 81.2531 147.66 86.1473 141.145 86.1473H55.7463C49.2829 86.1473 43.8335 81.3287 43.0423 74.9139L38.677 39.5248C37.7355 31.8916 43.69 25.1575 51.381 25.1575H145.127ZM51.381 27.6673C45.198 27.6674 40.411 33.0812 41.168 39.2176L45.5333 74.6068C46.1694 79.7638 50.5502 83.6374 55.7463 83.6375H141.145C146.383 83.6375 150.785 79.7029 151.371 74.4977L155.353 39.1086C156.04 33.0081 151.266 27.6673 145.127 27.6673H51.381Z" fill="#FFA853"/>
<path d="M146.316 17C153.978 17.0001 159.924 23.6858 159.029 31.2952L153.908 74.8415C153.15 81.2882 147.687 86.1469 141.196 86.1469H55.7459C49.2823 86.1469 43.8328 81.3283 43.0417 74.9133L37.6717 31.367C36.7304 23.734 42.6851 17 50.3759 17H146.316ZM50.3759 19.5099C44.1931 19.5099 39.406 24.9234 40.1627 31.0597L45.5327 74.6059C46.1686 79.7631 50.5497 83.6371 55.7459 83.6371H141.196C146.414 83.6371 150.806 79.731 151.416 74.5483L156.536 31.0021C157.255 24.8847 152.476 19.5099 146.316 19.5099H50.3759Z" fill="#FFA853"/>
<path d="M155.366 158.808C163.886 158.808 170.028 150.639 167.663 142.454L155.08 98.9076C153.497 93.4309 148.483 89.6608 142.782 89.6608H54.4099C48.6098 89.6608 43.5343 93.5608 42.041 99.1655L30.4385 142.712C28.2735 150.837 34.3981 158.808 42.8072 158.808H155.366ZM42.8072 156.298C36.047 156.298 31.1231 149.89 32.8636 143.358L44.4663 99.8118C45.6668 95.3061 49.747 92.1707 54.4099 92.1707H142.782C147.366 92.1707 151.396 95.2015 152.668 99.6044L165.252 143.151C167.153 149.731 162.215 156.298 155.366 156.298H42.8072Z" fill="#FFA853"/>
<path d="M88.7719 53.8336C88.7719 56.6059 87.0302 58.8533 84.8816 58.8533C82.7331 58.8533 80.9913 56.6059 80.9913 53.8336C80.9913 51.0613 82.7331 48.8139 84.8816 48.8139C87.0302 48.8139 88.7719 51.0613 88.7719 53.8336Z" fill="#FFA853"/>
<path d="M114.875 53.8336C114.875 56.6059 113.134 58.8533 110.985 58.8533C108.837 58.8533 107.095 56.6059 107.095 53.8336C107.095 51.0613 108.837 48.8139 110.985 48.8139C113.134 48.8139 114.875 51.0613 114.875 53.8336Z" fill="#FFA853"/>
<path fill-rule="evenodd" clip-rule="evenodd" d="M160.337 167C168.942 168.712 174 170.803 174 173.062C174 178.861 140.645 183.562 99.5 183.562C58.3548 183.562 25 178.861 25 173.062C25 170.989 29.2593 169.057 36.6113 167.43C39.833 172.402 45.4097 175.562 51.5664 175.562H145.113C151.407 175.562 157.145 172.251 160.337 167Z" fill="#FFA853" fill-opacity="0.4"/>
</svg>
