<svg width="200" height="200" viewBox="0 0 200 200" fill="none" xmlns="http://www.w3.org/2000/svg">
<path fill-rule="evenodd" clip-rule="evenodd" d="M60.3989 24.5504C58.7827 25.3276 57.9394 26.2014 56.6146 28.4719C52.0226 36.3412 29.275 74.9781 24.8844 82.3654C21.8794 87.4214 19.2465 92.0128 19.0335 92.5684C18.4531 94.0831 18.6153 96.6076 19.3948 98.1831C20.4033 100.222 22.4512 101.691 24.9442 102.164C25.641 102.296 39.1134 102.367 63.3358 102.367C104.531 102.367 101.882 102.45 104.147 101.096C106.312 99.802 107.43 97.836 107.569 95.0803C107.644 93.5917 107.588 93.1816 107.169 92.1508C106.901 91.4915 103.673 85.8607 99.9959 79.6379C92.3805 66.75 75.6661 38.2902 71.6369 31.3506C68.7861 26.4404 68.002 25.4513 66.274 24.5837C65.4721 24.1812 64.9054 24.0677 63.4518 24.0184C61.7869 23.9622 61.5284 24.0071 60.3989 24.5504ZM64.7799 26.914C66.4169 27.4836 65.7797 26.534 74.8108 41.8566C82.7239 55.2825 92.4551 71.7311 98.477 81.8599C101.648 87.1935 104.474 92.0576 104.757 92.669C105.989 95.3301 104.983 97.9545 102.153 99.4644C101.47 99.8291 100.157 99.8418 63.1486 99.8418H24.8513L23.8028 99.2892C21.7978 98.2324 20.6741 95.9321 21.1432 93.8449C21.2428 93.4016 24.4946 87.7253 28.5632 80.8918C36.0666 68.29 44.122 54.7152 54.0056 38.0179C57.1627 32.6841 59.8975 28.1481 60.083 27.9378C60.587 27.3666 62.3422 26.6069 63.1632 26.6047C63.5601 26.6035 64.2876 26.7427 64.7799 26.914ZM119.951 37.4229C117.154 38.0292 114.77 39.7999 113.627 42.1207L112.966 43.4642L112.903 70.2388C112.857 90.23 112.901 97.2947 113.079 98.1245C113.66 100.836 115.451 103.15 117.887 104.337C119.396 105.072 119.496 105.092 122.11 105.163L124.788 105.235V109.647C124.788 112.273 124.875 114.289 125.003 114.628C125.68 116.418 127.975 117.412 129.68 116.652C129.98 116.518 133.203 114.045 136.842 111.156C140.48 108.267 143.618 105.787 143.814 105.646C144.095 105.442 147.535 105.39 160.216 105.395C170.71 105.4 176.808 105.326 177.841 105.183C180.158 104.861 181.408 104.321 182.779 103.052C184.21 101.727 185.04 100.473 185.607 98.7789C186.028 97.5173 186.029 97.4406 185.976 70.6955L185.922 43.877L185.27 42.5001C184.45 40.7694 182.772 39.085 181.084 38.3001C178.38 37.042 180.14 37.1071 149.351 37.1247C126.107 37.138 121.027 37.1895 119.951 37.4229ZM179.76 40.3827C181.127 41.0537 182.426 42.3094 183.037 43.5497L183.497 44.4831L183.55 70.8862C183.603 97.2038 183.601 97.2929 183.182 98.4134C182.667 99.7901 181.155 101.497 179.893 102.127C179.386 102.38 178.444 102.674 177.799 102.78C177.118 102.892 169.633 102.971 159.973 102.969L143.32 102.964L141.885 104.065C141.096 104.671 137.813 107.261 134.59 109.821C131.09 112.6 128.552 114.478 128.289 114.482C128.047 114.486 127.66 114.25 127.43 113.957C127.033 113.452 127.011 113.176 127.011 108.569C127.011 104.333 126.968 103.665 126.677 103.343C126.393 103.029 126.018 102.973 124.188 102.973C121.696 102.973 119.978 102.701 118.855 102.128C117.574 101.475 116.211 99.9642 115.72 98.6546L115.285 97.4915L115.338 70.6684L115.391 43.8453L116.003 42.8545C116.34 42.3098 117.057 41.5309 117.596 41.1238C119.537 39.657 117.209 39.7536 149.545 39.797L178.647 39.8362L179.76 40.3827ZM61.4098 45.8687C59.4723 46.5033 57.8943 48.158 57.4754 49.9945C57.3232 50.6617 58.0786 69.9968 58.3868 73.3266C58.6404 76.0648 60.4658 77.7185 63.2347 77.7185C65.4879 77.7185 67.4553 76.3022 67.9973 74.2901C68.1069 73.8834 68.3328 70.647 68.4995 67.0984C68.6663 63.5497 68.9051 58.479 69.03 55.83C69.1551 53.1811 69.1992 50.6498 69.1281 50.2049C68.8581 48.5164 67.7215 47.068 65.978 46.1904C64.8608 45.6279 62.6256 45.4707 61.4098 45.8687ZM147.322 47.8907C145.899 48.3633 144.596 49.0635 144.197 49.5701C143.984 49.841 143.655 50.4673 143.466 50.9619C143.14 51.8167 143.149 52.4374 143.661 63.5271C144.237 76.0176 144.299 76.8793 144.692 77.8343C145.943 80.875 150.423 81.7041 152.949 79.3623C153.645 78.7168 154.221 77.6409 154.375 76.6988C154.437 76.3152 154.729 70.7217 155.023 64.269C155.519 53.3605 155.534 52.4598 155.236 51.4395C154.813 49.9945 153.994 49.045 152.547 48.3215C151.585 47.8406 151.062 47.72 149.747 47.6761C148.795 47.6444 147.798 47.7327 147.322 47.8907ZM64.3919 48.2259C64.8228 48.3457 65.4323 48.7657 65.8571 49.2357C66.54 49.9913 66.5845 50.1234 66.5861 51.4036C66.5889 53.3878 65.7862 72.0026 65.6524 73.0541C65.5255 74.0537 64.7614 74.9839 63.8867 75.2033C63.5973 75.2761 62.9799 75.2124 62.5146 75.0621C60.9286 74.5498 60.9811 74.8084 60.5319 65.2931C59.789 49.5604 59.7993 50.4483 60.3494 49.6351C60.8726 48.8617 62.3305 48.0182 63.1409 48.02C63.4231 48.0206 63.9859 48.1134 64.3919 48.2259ZM150.728 50.317C151.094 50.4697 151.728 50.8884 152.137 51.247C152.879 51.8988 152.88 51.9012 152.877 53.5454C152.873 57.131 151.877 76.5188 151.678 76.89C150.976 78.2016 148.817 78.5891 147.655 77.6121C147.322 77.3312 146.996 76.854 146.931 76.5513C146.867 76.2487 146.589 71.2735 146.313 65.4952C146.038 59.7169 145.755 54.2978 145.685 53.4528C145.561 51.9618 145.574 51.8971 146.143 51.2607C147.074 50.2196 149.366 49.7479 150.728 50.317ZM96.3073 56.6327C96.0288 56.9865 95.8883 57.4607 95.8883 58.047V58.9289L95.0294 58.9293C93.8991 58.9297 92.8114 59.4886 92.5662 60.1949C92.2738 61.038 92.7219 61.3487 94.4393 61.4926L95.8883 61.614V62.302C95.8883 63.0988 96.3893 64.1819 96.7579 64.1819C97.3388 64.1819 97.8778 63.5392 98.1106 62.5688L98.3537 61.5554H99.4584C100.799 61.5554 101.345 61.2956 101.345 60.6571C101.345 59.9367 100.303 59.1675 99.1134 59.0097L98.1114 58.8768V57.9377C98.1114 56.2642 97.1464 55.5662 96.3073 56.6327ZM62.2832 82.1775C61.1327 82.4549 60.4694 82.8574 59.6277 83.789C58.5972 84.9293 58.2975 85.7368 58.3027 87.3594C58.3098 89.5425 59.2429 91.1757 61.0266 92.1275C62.1725 92.7391 64.5326 92.7357 65.694 92.1211C68.583 90.5918 69.4377 86.8169 67.4975 84.1549C66.3852 82.6287 64.0633 81.7484 62.2832 82.1775ZM147.55 84.6824C144.109 85.9086 143.103 90.2492 145.525 93.4232C146.391 94.5581 147.468 94.988 149.444 94.988C151.422 94.988 152.381 94.6037 153.455 93.381C154.415 92.2884 154.756 91.3404 154.766 89.7398C154.776 88.0429 154.142 86.608 152.948 85.6241C151.534 84.4587 149.281 84.0656 147.55 84.6824ZM64.4348 84.8665C66.6554 85.794 66.6873 88.7165 64.4887 89.8182C63.6361 90.2455 63.437 90.2742 62.7497 90.0684C62.3172 89.9389 61.6968 89.5208 61.3485 89.1242C60.8384 88.5436 60.7237 88.2373 60.7243 87.4598C60.7259 85.3257 62.5247 84.0686 64.4348 84.8665ZM151 87.2063C152.26 87.9742 152.755 89.7134 152.086 91.0238C151.298 92.568 149.634 93.084 148.05 92.2756C146.129 91.2962 146.124 88.2076 148.042 87.1794C148.938 86.6992 150.187 86.7105 151 87.2063ZM93.4163 106.013C81.038 107.305 70.8018 114.42 65.3802 125.501C60.5074 135.459 60.6135 146.665 65.6766 156.817C67.2882 160.048 69.0967 162.6 71.7299 165.359C76.7796 170.65 83.0358 174.082 90.3191 175.556C92.2431 175.946 93.1717 176.007 96.9998 175.999C102.076 175.989 103.794 175.721 108.115 174.266C115.747 171.696 122.159 166.531 126.596 159.38C132.137 150.448 133.388 139.5 130.022 129.377C129.423 127.577 127.209 123.127 126.033 121.359C119.778 111.959 109.474 106.321 97.8167 105.919C96.3671 105.869 94.3869 105.911 93.4163 106.013ZM99.5016 108.433C106.534 109.056 113.322 111.94 118.512 116.513C127.746 124.647 131.665 138.033 128.212 149.651C126.528 155.317 123.734 159.979 119.433 164.299C115.848 167.899 112.07 170.267 107.216 171.956C103.348 173.302 101.595 173.571 96.6967 173.57C91.9464 173.569 90.6645 173.374 86.6929 172.048C75.4913 168.307 67.1089 158.59 64.7391 146.599C64.112 143.425 64.1074 138.646 64.728 135.286C66.7914 124.118 74.3828 114.758 84.6893 110.674C87.6941 109.484 90.3537 108.861 94.5747 108.359C95.8038 108.213 97.2585 108.235 99.5016 108.433ZM40.4661 109.022C38.8556 109.541 37.1606 111.231 36.4304 113.046C35.9821 114.16 35.97 114.387 35.9098 122.773C35.8627 129.365 35.7916 131.342 35.6042 131.284C34.4882 130.939 33.8062 130.89 32.7492 131.077C31.054 131.377 30.0425 131.912 28.8099 133.16L27.7364 134.247L26.5774 134.142C24.8777 133.988 23.3252 134.732 21.6559 136.501L20.3859 137.847L19.6883 137.561C17.8446 136.807 14.9154 138.017 13.7418 140.019C12.7038 141.79 12.7129 142.148 14.0377 151.73C15.4444 161.904 15.7187 163.481 16.3547 165.056C17.559 168.038 19.7944 170.617 22.6557 172.328C28.8659 176.039 36.6272 176.241 43.4052 172.868C51.3623 168.907 54.835 162.323 54.8548 151.16C54.8677 143.768 53.3138 140.13 49.6081 138.88L48.6987 138.573L48.5976 126.077C48.498 113.766 48.4901 113.567 48.056 112.637C47.4883 111.421 46.3449 110.163 45.1976 109.491C44.4557 109.056 43.9908 108.948 42.6544 108.901C41.7548 108.87 40.7702 108.924 40.4661 109.022ZM43.9494 111.566C44.6861 111.946 45.4924 112.858 45.9091 113.782C46.2448 114.527 46.2782 115.536 46.3329 126.561C46.3657 133.145 46.3202 138.532 46.2319 138.531C46.1436 138.53 44.7257 138.723 43.081 138.959C41.4363 139.196 40.0344 139.333 39.9657 139.264C39.897 139.195 39.7741 138.298 39.6926 137.27C39.53 135.217 39.4519 134.934 38.7519 133.864L38.2753 133.135L38.3335 123.762C38.3907 114.559 38.3998 114.374 38.8345 113.561C39.3723 112.557 40.5257 111.508 41.2753 111.343C41.579 111.276 41.9183 111.19 42.0295 111.152C42.3349 111.047 43.3801 111.273 43.9494 111.566ZM154.714 118.447L154.092 118.97V125.027C154.092 128.973 154.168 131.225 154.31 131.491C154.829 132.459 156.641 132.565 157.128 131.655C157.344 131.252 157.411 119.391 157.2 118.843C157.063 118.485 156.107 117.924 155.633 117.924C155.47 117.924 155.056 118.16 154.714 118.447ZM82.7462 128.247C79.9469 129.871 80.0781 135 82.9565 136.47C84.5683 137.294 86.2107 136.562 87.1169 134.616C88.8404 130.916 85.7954 126.479 82.7462 128.247ZM108.253 128.153C106.885 128.85 106.151 130.292 106.154 132.279C106.158 135.253 108.062 137.3 110.27 136.705C113.339 135.879 114.039 130.569 111.349 128.518C110.45 127.832 109.176 127.682 108.253 128.153ZM35.2188 133.564C36.8483 134.415 37.4827 135.793 37.4809 138.475L37.4795 140.452L36.7915 140.92C35.9051 141.523 35.1083 142.681 34.7287 143.917C34.0735 146.05 35.0733 149.045 36.8938 150.404L37.8883 151.146L36.801 152.264C35.3516 153.754 34.3686 155.276 33.6427 157.154C32.5421 160.001 32.6576 161.969 33.9256 161.969C34.5962 161.969 34.835 161.595 35.2657 159.872C35.9043 157.317 36.8888 155.642 38.9732 153.566L40.8169 151.728L43.04 151.272C44.2627 151.022 45.4676 150.687 45.7178 150.529C46.22 150.211 46.3388 149.285 45.93 148.877C45.602 148.549 43.9132 148.576 42.4337 148.933C40.5578 149.386 39.7165 149.325 38.6694 148.661C36.3502 147.191 36.3637 143.948 38.6949 142.529C39.4453 142.072 40.2017 141.886 43.0208 141.466C47.075 140.862 48.0279 140.842 49.1029 141.341C51.6016 142.5 52.4381 144.929 52.4369 151.023C52.4359 156.278 51.7148 160.077 50.096 163.358C49.3119 164.947 48.864 165.548 47.3133 167.095C42.7473 171.651 35.9672 173.754 29.9037 172.496C24.0119 171.274 19.8401 168.023 18.3074 163.459C17.9185 162.301 17.1128 157.206 17.292 157.039C17.3369 156.997 17.8781 157.055 18.4945 157.169C20.2309 157.488 21.5951 157.012 23.1601 155.541L24.3973 154.379L25.4323 154.891C27.3023 155.816 29.9803 155.348 31.3501 153.857C32.734 152.351 33.0497 150.516 32.5463 146.906C31.148 136.882 31.1312 136.794 30.4607 136.053C30.1603 135.722 30.1805 135.632 30.7325 134.841C31.0605 134.371 31.6447 133.827 32.0307 133.633C32.8775 133.207 34.469 133.173 35.2188 133.564ZM154.588 135.796C153.861 136.523 153.89 137.866 154.648 138.566C155.426 139.284 155.828 139.381 156.637 139.043C157.617 138.633 158.054 137.599 157.653 136.639C157.084 135.277 155.534 134.851 154.588 135.796ZM27.8615 136.885C29.0933 137.588 29.1695 137.846 30.0225 144.207C30.4609 147.475 30.7648 150.402 30.6981 150.71C30.5461 151.412 29.7315 152.395 28.9803 152.783C28.1137 153.231 26.7467 153.159 25.9608 152.624C24.6704 151.747 24.6207 151.581 23.7351 145.208C22.9348 139.448 22.9192 139.231 23.2486 138.501C24.1094 136.593 26.1156 135.89 27.8615 136.885ZM19.87 140.096C20.9975 140.937 21.0807 141.218 21.8285 146.702C22.2214 149.583 22.4851 152.204 22.4146 152.525C22.2131 153.443 21.2337 154.407 20.2139 154.692C18.9805 155.038 18.0861 154.827 17.2886 154.005L16.6229 153.318L15.8472 147.956C15.0419 142.389 15.0366 141.926 15.7656 140.814C16.5394 139.633 18.7356 139.249 19.87 140.096ZM94.7919 142.895C91.8423 143.835 89.6183 146.451 88.9038 149.82C87.842 154.828 89.8456 159.71 93.7663 161.666C94.8574 162.211 95.1711 162.271 96.8988 162.272C98.6275 162.272 98.9505 162.209 100.143 161.645C103.59 160.012 105.565 156.285 105.326 151.867C105.039 146.568 101.786 142.825 97.307 142.64C96.3214 142.599 95.4374 142.689 94.7919 142.895ZM99.0465 145.414C104.443 148.025 104.179 157.664 98.654 159.735C97.6088 160.127 95.766 159.996 94.6945 159.453C92.5533 158.368 91.2738 156.105 91.0915 153.079C90.8735 149.455 92.3197 146.581 94.9657 145.379C96.1027 144.863 97.9404 144.879 99.0465 145.414ZM139.515 156.443C139.331 156.664 139.215 157.481 139.169 158.868L139.1 160.959H137.547C135.643 160.959 135.041 161.278 135.134 162.236C135.218 163.09 135.852 163.376 137.672 163.38L139.137 163.383L139.14 164.949C139.144 166.873 139.418 167.502 140.292 167.587C141.199 167.676 141.562 166.908 141.562 164.908V163.383L143.027 163.38C144.847 163.376 145.481 163.09 145.565 162.236C145.659 161.275 145.057 160.959 143.134 160.959H141.562V159.127C141.562 157.387 141.372 156.596 140.875 156.264C140.489 156.007 139.803 156.097 139.515 156.443Z" fill="#FFA853"/>
</svg>
