<svg width="200" height="200" viewBox="0 0 200 200" fill="none" xmlns="http://www.w3.org/2000/svg">
<path d="M86.8305 98.3614C87.7696 100.956 86.9011 103.649 84.8905 104.377C82.88 105.104 80.4888 103.591 79.5496 100.997C78.6105 98.4029 79.479 95.7098 81.4896 94.9819C83.5001 94.2541 85.8913 95.7671 86.8305 98.3614Z" fill="#FFA853"/>
<path d="M111.256 89.5186C112.196 92.1129 111.327 94.806 109.317 95.5338C107.306 96.2617 104.915 94.7486 103.976 92.1544C103.036 89.5601 103.905 86.867 105.916 86.1392C107.926 85.4113 110.317 86.9243 111.256 89.5186Z" fill="#FFA853"/>
<path d="M66.9537 51.9925C67.5162 46.3489 73.883 43.3493 78.5761 46.5168L161.238 102.309C166.187 105.649 165.436 113.168 159.925 115.458L136.997 124.987L149.477 154.975C151.598 160.072 149.196 165.928 144.112 168.054L116.853 179.456C111.768 181.582 105.927 179.174 103.806 174.077L91.283 143.986L67.8901 153.709C62.6649 155.88 57.0186 151.678 57.581 146.035L66.9537 51.9925ZM77.1836 48.5905C74.0549 46.4788 69.8103 48.4786 69.4353 52.2411L60.0625 146.284C59.6876 150.045 63.4518 152.847 66.9352 151.4L92.6266 140.722L106.108 173.115C107.699 176.937 112.079 178.743 115.893 177.149L143.152 165.747C146.965 164.152 148.766 159.761 147.176 155.938L133.733 123.638L158.97 113.149C162.644 111.622 163.145 106.609 159.846 104.382L77.1836 48.5905Z" fill="#FFA853"/>
<path d="M103.457 100.25C104.474 99.8231 105.677 100.306 105.818 101.401C106.233 104.623 104.477 107.853 101.337 109.171C97.6242 110.729 93.3604 109.034 91.7184 105.384V105.384C91.6765 105.287 91.7215 105.175 91.8185 105.134L103.457 100.25Z" fill="#FFA853"/>
<path d="M41.3959 41.8454C41.6575 41.2073 42.3869 40.9021 43.025 41.1638L53.4839 45.452C54.1221 45.7137 54.4273 46.443 54.1656 47.0812C53.904 47.7194 53.1746 48.0246 52.5364 47.7629L42.0776 43.4746C41.4394 43.213 41.1342 42.4836 41.3959 41.8454ZM84.2585 23.9032C84.5251 23.2671 85.2568 22.9675 85.8929 23.2341C86.5291 23.5007 86.8286 24.2324 86.562 24.8686L82.1585 35.3757C81.8919 36.0118 81.1602 36.3113 80.5241 36.0448C79.8879 35.7781 79.5884 35.0464 79.855 34.4103L84.2585 23.9032ZM62.5631 36.1119L56.8746 22.5168C56.6083 21.8805 56.9083 21.1489 57.5446 20.8826C58.1809 20.6164 58.9126 20.9164 59.1788 21.5527L64.8673 35.1477C65.1336 35.784 64.8336 36.5157 64.1973 36.7819C63.561 37.0482 62.8293 36.7482 62.5631 36.1119Z" fill="#FFA853"/>
<path d="M70.0754 39.2292C73.8958 39.2292 77.0515 42.4436 77.5421 46.6101C76.6801 45.9873 75.7623 45.6075 74.8392 45.4439C74.0484 43.3544 72.2133 41.8902 70.0754 41.8902C67.2151 41.8902 64.8963 44.5111 64.8963 47.7441C64.8963 49.5472 65.6177 51.1595 66.7518 52.2334C66.7391 52.3374 66.728 52.4423 66.7187 52.5481L66.4814 55.2292C64.1349 53.7867 62.5421 50.9757 62.5421 47.7441C62.5421 43.0415 65.9149 39.2292 70.0754 39.2292Z" fill="#FFA853"/>
<path d="M103.806 173.283C105.927 177.627 111.768 179.678 116.853 177.866L136.738 170.777C152.376 172.146 163 174.824 163 177.904C163 182.375 140.614 186 113 186C85.3858 186 63 182.375 63 177.904C63 174.033 79.7785 170.799 102.202 170L103.806 173.283ZM127.955 171.6C127.947 171.57 127.939 171.541 127.93 171.513H128.202L127.955 171.6Z" fill="#FFA853" fill-opacity="0.4"/>
</svg>
